HIERARCHY
ROOT Hips
{
	OFFSET 0.00000 0.00000 0.00000
	CHANNELS 6 Xposition Yposition Zposition Zrotation Yrotation Xrotation 
	JOINT LHipJoint
	{
		OFFSET 0 0 0
		CHANNELS 3 Zrotation Yrotation Xrotation
		JOINT LeftHip
		{
			OFFSET 1.76014 -1.80163 0.38499
			CHANNELS 3 Zrotation Yrotation Xrotation
			JOINT LeftKnee
			{
				OFFSET 2.46817 -6.78126 0.00000
				CHANNELS 3 Zrotation Yrotation Xrotation
				JOINT LeftAnkle
				{
					OFFSET 2.79348 -7.67503 0.00000
					CHANNELS 3 Zrotation Yrotation Xrotation
					JOINT LeftToe
					{
						OFFSET 0.09421 -0.25885 1.91403
						CHANNELS 3 Zrotation Yrotation Xrotation
						End Site
						{
							OFFSET 0.00000 -0.00000 0.97975
						}
					}
				}
			}
		}
	}
	JOINT RHipJoint
	{
		OFFSET 0 0 0
		CHANNELS 3 Zrotation Yrotation Xrotation
		JOINT RightHip
		{
			OFFSET -1.77926 -1.80163 0.38499
			CHANNELS 3 Zrotation Yrotation Xrotation
			JOINT RightKnee
			{
				OFFSET -2.51996 -6.92353 0.00000
				CHANNELS 3 Zrotation Yrotation Xrotation
				JOINT RightAnkle
				{
					OFFSET -2.76109 -7.58603 0.00000
					CHANNELS 3 Zrotation Yrotation Xrotation
					JOINT RightToe
					{
						OFFSET -0.08067 -0.22163 1.86812
						CHANNELS 3 Zrotation Yrotation Xrotation
						End Site
						{
							OFFSET -0.00000 -0.00000 0.95558
						}
					}
				}
			}
		}
	}
	JOINT lowerback
	{
		OFFSET 0 0 0
		CHANNELS 3 Zrotation Yrotation Xrotation
		JOINT Chest
		{
			OFFSET 0.05537 1.92033 -0.03713
			CHANNELS 3 Zrotation Yrotation Xrotation
			JOINT Chest2
			{
				OFFSET 0.04452 1.90073 0.10860
				CHANNELS 3 Zrotation Yrotation Xrotation
				JOINT lowerneck
				{
					OFFSET 0 0 0
					CHANNELS 3 Zrotation Yrotation Xrotation
					JOINT Neck
					{
						OFFSET 0.00903 1.74649 0.02074
						CHANNELS 3 Zrotation Yrotation Xrotation
						JOINT Head
						{
							OFFSET -0.08608 1.67844 -0.12081
							CHANNELS 3 Zrotation Yrotation Xrotation
							End Site
							{
								OFFSET -0.03521 1.83380 -0.05059
							}
						}
					}
				}
				JOINT LeftCollar
				{
					OFFSET 0 0 0
					CHANNELS 3 Zrotation Yrotation Xrotation
					JOINT LeftShoulder
					{
						OFFSET 3.28197 0.84325 -0.19106
CHANNELS 3 Zrotation Xrotation Yrotation
						JOINT LeftElbow
						{
OFFSET 0 -5.243180 -0.000000
CHANNELS 3 Zrotation Xrotation Yrotation
							JOINT LeftWrist
							{
OFFSET 0 -2.989990 0.000000
CHANNELS 3 Zrotation Xrotation Yrotation
								JOINT lhand
								{
									OFFSET 0 0 0
CHANNELS 3 Zrotation Xrotation Yrotation
									JOINT LFingers
									{
OFFSET 0 -0.726740 0.000000
CHANNELS 3 Zrotation Xrotation Yrotation
										End Site
										{
OFFSET 0 -0.585920 0.000000
										}
									}
								}
								JOINT LThumb
								{
OFFSET 0 0.000000 0.000000
CHANNELS 3 Zrotation Xrotation Yrotation
									End Site
									{
OFFSET 0 -0.594870 0.594870
									}
								}
							}
						}
					}
				}
				JOINT RightCollar
				{
					OFFSET 0 0 0
					CHANNELS 3 Zrotation Yrotation Xrotation
					JOINT RightShoulder
					{
						OFFSET -3.30963 0.78377 0.14264
CHANNELS 3 Zrotation Xrotation Yrotation
						JOINT RightElbow
						{
OFFSET 0 -5.370450 0.000000
CHANNELS 3 Zrotation Xrotation Yrotation
							JOINT RightWrist
							{
OFFSET 0 -2.927920 0.000000
CHANNELS 3 Zrotation Xrotation Yrotation
								JOINT rhand
								{
									OFFSET 0 0 0
CHANNELS 3 Zrotation Xrotation Yrotation
									JOINT RFingers
									{
OFFSET 0 -0.784500 0.000000
CHANNELS 3 Zrotation Xrotation Yrotation
										End Site
										{
OFFSET 0 -0.632480 0.000000
										}
									}
								}
								JOINT RThumb
								{
OFFSET 0 0.000000 0.000000
CHANNELS 3 Zrotation Xrotation Yrotation
									End Site
									{
OFFSET 0 -0.642140 0.642140
									}
								}
							}
						}
					}
				}
			}
		}
	}
}
MOTION
Frames: 10
Frame Time: 0.008333333333333333
0.246300 18.191000 0.126400 0.584000 0.400900 13.028900 0.000000 0.000000 0.000000 -16.001100 -19.649600 -14.521500 1.041400 6.490100 18.213300 -0.892100 16.754900 -9.736800 1.157300 -6.830000 -19.212800 0.000000 0.000000 0.000000 15.444500 16.096300 -19.205600 -1.264900 -7.128900 20.097700 0.797500 -17.420800 -14.880000 -0.032700 1.166400 -3.206800 -0.552200 -1.377500 5.309000 2.607700 -1.778200 -0.746000 3.154300 -0.846200 -3.648400 4.059200 -0.712600 12.521900 -9.915800 -1.244700 -6.690100 -3.641300 -0.155000 -4.139000 0.000000 -0.000000 0.000000 0.076400 -4.657400 -52.690700 79.774700 -59.601200 51.156500 9.212300 25.221300 -27.283800 0.000000 0.000000 0.000000 -7.125000 0.000000 0.000000 -22.710300 56.086800 6.410100 0.000000 -0.000000 0.000000 -4.179900 -4.288000 42.946600 -83.660100 -59.847600 -54.512300 -7.290200 31.449800 -5.760600 0.000000 0.000000 0.000000 7.125000 0.000000 -0.000000 14.334000 24.177400 7.431400
0.271082 18.191100 0.146344 0.635854 0.069795 12.580047 0.000000 0.000000 0.000000 -16.400349 -19.505314 -13.747469 1.021970 6.431083 18.040434 -0.924866 17.068944 -10.039342 1.095336 -6.650786 -18.684660 0.000000 0.000000 0.000000 15.476149 15.680491 -18.847757 -1.278410 -7.165441 20.206387 0.737220 -16.923019 -14.720464 -0.026677 1.053860 -2.897035 -0.357256 -1.335287 4.428720 2.488727 -1.742624 0.413840 2.865425 -0.858304 -1.968663 3.937394 -1.267762 18.751429 -10.118193 -2.197997 -10.024976 -3.678528 -0.368127 -6.278240 0.000000 0.000000 0.000000 0.209137 -6.835888 -52.486600 80.551484 -59.659902 51.826720 7.054512 24.172080 -28.320019 0.000000 0.000000 0.000000 -7.125000 0.000000 0.000000 -25.562966 56.590898 7.608263 0.000000 0.000000 0.000000 -3.493299 -6.989782 42.644285 -86.411764 -59.951199 -56.893006 -2.154061 30.833222 -5.510983 0.000000 0.000000 0.000000 7.125000 0.000000 0.000000 18.068122 24.440585 9.430223
0.293719 18.178553 0.125834 0.660361 -0.618402 12.604260 0.000000 0.000000 0.000000 -16.552114 -18.960236 -14.384414 1.104542 6.677615 18.763839 -0.900190 16.910931 -10.254931 1.100771 -6.666627 -18.731360 0.000000 0.000000 0.000000 15.287792 15.696215 -19.353955 -1.329309 -7.301182 20.610676 0.696941 -16.446107 -14.253710 -0.040956 1.303172 -3.583507 -0.347405 -1.186985 3.859160 2.388249 -1.576224 1.748763 2.709402 -0.798679 -0.291037 3.501541 -0.888533 19.910248 -9.862614 -1.678409 -9.208852 -3.577539 -0.109135 -6.161919 0.000000 0.000000 0.000000 0.350318 -9.333497 -51.990562 83.829814 -59.855530 54.659065 6.062401 22.887939 -28.142784 0.000000 0.000000 0.000000 -7.125000 0.000000 0.000000 -26.407954 56.232186 7.649710 0.000000 0.000000 0.000000 -3.083895 -10.119121 42.780608 -90.084757 -59.999874 -60.073356 -1.046943 31.628405 -4.942667 0.000000 0.000000 0.000000 7.125000 0.000000 0.000000 18.941595 24.974157 9.687127
0.317342 18.159184 0.080538 0.812028 -0.986491 12.815143 0.000000 0.000000 0.000000 -16.683729 -18.383160 -15.474398 1.190298 6.923252 19.488241 -0.817958 16.251851 -10.300665 1.087666 -6.627835 -18.617520 0.000000 0.000000 0.000000 14.933638 15.170097 -20.550597 -1.428415 -7.557328 21.377327 0.630072 -15.601054 -13.397395 -0.095183 1.983657 -5.460817 -0.386957 -0.973053 4.533781 2.279872 -1.291726 2.020140 2.619984 -0.657134 -0.404818 3.790422 -0.634953 20.539997 -9.683980 -1.168178 -8.476574 -3.618064 0.112264 -5.990842 0.000000 0.000000 0.000000 0.092029 -9.488589 -51.835660 87.510042 -59.976472 57.843820 7.000670 22.885534 -28.224513 0.000000 0.000000 0.000000 -7.125000 0.000000 0.000000 -25.547004 56.494371 7.542154 0.000000 0.000000 0.000000 -2.863459 -10.658075 42.773935 -93.762556 -59.945622 -63.257862 -3.119317 31.294722 -5.149159 0.000000 0.000000 0.000000 7.125000 0.000000 0.000000 17.425106 24.787692 8.913677
0.335045 18.157689 0.058899 0.631984 -0.680255 13.295076 0.000000 0.000000 0.000000 -16.326458 -18.227253 -16.491050 1.237300 7.053628 19.874356 -0.747272 15.610469 -10.095618 1.135095 -6.766315 -19.024990 0.000000 0.000000 0.000000 14.943376 15.171992 -21.059384 -1.404588 -7.496702 21.195505 0.656935 -15.770601 -13.263260 -0.113157 2.168636 -5.971997 -0.290499 -1.093473 4.693002 2.487502 -1.445347 2.069350 2.790100 -0.734444 -0.432282 3.679934 -0.485617 19.910333 -9.428129 -0.907812 -7.591521 -3.524685 0.188868 -5.586629 0.000000 0.000000 0.000000 -0.538265 -9.891829 -51.558128 89.557081 -59.999240 59.616402 6.839481 24.106943 -28.622488 0.000000 0.000000 0.000000 -7.125000 0.000000 0.000000 -25.996573 56.817242 7.895396 0.000000 0.000000 0.000000 -2.743401 -10.983557 42.873825 -96.650313 -59.832207 -65.756075 -3.815162 31.207734 -5.515275 0.000000 0.000000 0.000000 7.125000 0.000000 0.000000 16.876158 24.437238 8.751562
0.350006 18.162316 0.047660 0.653805 -0.517927 13.425792 0.000000 0.000000 0.000000 -16.326738 -18.720860 -16.411508 1.208952 6.975210 19.641959 -0.803473 16.066190 -9.980266 1.129003 -6.748814 -18.973286 0.000000 0.000000 0.000000 14.787431 15.580931 -20.924746 -1.371277 -7.410967 20.938801 0.700261 -16.258015 -13.667065 -0.069085 1.695023 -4.663648 -0.488638 -1.167008 4.899856 2.635906 -1.548261 2.071723 3.065193 -0.786828 -0.530258 3.488382 -0.629966 19.351178 -9.411916 -1.057327 -6.225409 -3.450534 0.080134 -5.077906 0.000000 0.000000 0.000000 -0.987024 -10.204092 -51.453029 91.476650 -59.991673 61.278771 4.857394 23.910785 -28.419204 0.000000 0.000000 0.000000 -7.125000 0.000000 0.000000 -27.784736 56.234524 8.094616 0.000000 0.000000 0.000000 -3.065674 -11.488753 43.654191 -97.396025 -59.792241 -66.400690 -4.324229 30.794563 -5.747307 0.000000 0.000000 0.000000 7.125000 0.000000 0.000000 16.480775 24.212950 8.618589
0.368515 18.158285 0.029796 0.669607 -0.143550 13.407472 0.000000 0.000000 0.000000 -16.339313 -19.018426 -16.557166 1.234370 7.045573 19.850558 -0.788715 15.948268 -10.014880 1.107516 -6.686172 -18.788962 0.000000 0.000000 0.000000 14.732163 15.305325 -21.096224 -1.393121 -7.467194 21.107124 0.680402 -16.174166 -13.864504 -0.047390 1.399258 -3.848111 -0.442075 -1.248869 4.471439 2.699612 -1.674374 2.827011 3.088260 -0.865245 0.492987 2.807622 -1.013006 17.949412 -9.050578 -1.656113 -5.553063 -3.149887 -0.267548 -4.677235 0.000000 0.000000 0.000000 -1.100808 -11.835754 -51.986508 93.982605 -59.939851 63.448341 5.032684 23.646735 -28.994109 0.000000 0.000000 0.000000 -7.125000 0.000000 0.000000 -28.048859 56.774505 8.557273 0.000000 0.000000 0.000000 -3.360343 -13.096637 44.502894 -99.185507 -59.678611 -67.946254 -5.277112 30.367427 -5.574332 0.000000 0.000000 0.000000 7.125000 0.000000 0.000000 15.814088 24.375120 8.180128
0.384925 18.147982 0.009215 0.621280 0.142074 13.229782 0.000000 0.000000 0.000000 -16.357039 -18.482519 -17.057832 1.311805 7.254797 20.472445 -0.691570 15.052803 -9.791819 1.196651 -6.940634 -19.539747 0.000000 0.000000 0.000000 14.813766 14.887396 -21.275560 -1.443586 -7.595612 21.492435 0.648248 -15.927297 -13.881208 -0.041475 1.313937 -3.612965 -0.339720 -1.260822 5.283598 2.716392 -1.680784 3.062785 3.066466 -0.867218 0.281477 1.763561 -2.679829 17.244338 -8.325127 -4.059305 -5.780528 -2.527415 -1.474989 -4.744405 0.000000 0.000000 0.000000 -1.130444 -12.662807 -52.248590 97.232118 -59.801136 66.259021 3.768886 23.408336 -28.750172 0.000000 0.000000 0.000000 -7.125000 0.000000 0.000000 -29.088790 56.304497 8.572304 0.000000 0.000000 0.000000 -3.212653 -13.231454 44.879255 -101.873414 -59.460380 -70.264011 -6.430898 30.460875 -5.930469 0.000000 0.000000 0.000000 7.125000 0.000000 0.000000 14.939426 24.020920 7.822461
0.404302 18.134368 -0.029173 0.588216 0.354690 13.461936 0.000000 0.000000 0.000000 -16.253576 -17.992961 -18.202264 1.401978 7.489953 21.175314 -0.587547 14.058907 -9.673724 1.232989 -7.041604 -19.838885 0.000000 0.000000 0.000000 14.705442 14.719720 -22.008088 -1.505400 -7.749265 21.955096 0.637244 -15.800335 -13.776301 -0.056863 1.535194 -4.222876 -0.685779 -1.379433 6.147064 2.881130 -1.850869 3.389978 3.460736 -0.960228 0.166376 1.596542 -5.064123 16.263790 -7.981686 -7.434124 -7.990614 -2.065313 -3.102290 -5.430486 0.000000 0.000000 0.000000 -1.411214 -13.369708 -51.843097 102.116237 -59.437349 70.473134 3.961084 23.422455 -28.782568 0.000000 0.000000 0.000000 -7.125000 0.000000 0.000000 -28.927852 56.371504 8.567269 0.000000 0.000000 0.000000 -3.367914 -13.719755 45.445594 -104.340000 -59.208385 -72.385766 -7.559666 30.245356 -6.560517 0.000000 0.000000 0.000000 7.125000 0.000000 0.000000 14.059815 23.391896 7.543973
0.426482 18.123039 -0.069549 0.434676 0.618825 13.343945 0.000000 0.000000 0.000000 -16.147831 -17.487795 -18.893739 1.494884 7.723400 21.877142 -0.505514 13.188550 -9.449945 1.326034 -7.292298 -20.584293 0.000000 0.000000 0.000000 14.814772 14.578624 -22.111387 -1.527341 -7.803139 22.117779 0.625370 -15.759475 -13.919997 -0.034385 1.194150 -3.283298 -0.506422 -1.417670 7.478864 2.963791 -1.891993 4.214211 3.475734 -0.987641 0.280956 0.816761 -6.569076 12.408418 -5.641126 -9.413386 -9.280136 -1.116061 -4.265981 -5.132656 0.000000 0.000000 0.000000 -1.637387 -13.959544 -51.641385 107.888769 -58.754590 75.427292 4.665856 23.670997 -28.944970 0.000000 0.000000 0.000000 -7.125000 0.000000 0.000000 -28.368819 56.656346 8.583049 0.000000 0.000000 0.000000 -3.526695 -14.679169 45.664068 -107.402613 -58.823882 -75.011549 -8.988349 30.376331 -6.636419 0.000000 0.000000 0.000000 7.125000 0.000000 0.000000 13.019794 23.291746 6.986465
